<svg xmlns="http://www.w3.org/2000/svg" xmlns:xlink="http://www.w3.org/1999/xlink" viewBox="0 0 464.06 232.21"><defs><style>.cls-1,.cls-4{fill:#fff;}.cls-1,.cls-2{stroke:#fff;stroke-linejoin:round;stroke-width:4px;}.cls-2,.cls-3,.cls-9{fill:none;}.cls-2{stroke-linecap:round;}.cls-4{stroke:#282828;}.cls-4,.cls-9{stroke-width:3px;}.cls-5{fill:#040000;}.cls-6{mask:url(#mask);}.cls-7{clip-path:url(#clip-path);}.cls-8{fill:#464646;}.cls-9{stroke:#040000;}</style><mask id="mask" x="377.74" y="128.55" width="65" height="65" maskUnits="userSpaceOnUse"><g id="mask0_417_444" data-name="mask0 417 444"><path class="cls-1" d="M387.22,178.65v-35.2a8.13,8.13,0,0,1,8.13-8.13h29.79v35.21H395.35A8.13,8.13,0,0,0,387.22,178.65Z"/><path class="cls-2" d="M425.14,170.53H395.35a8.13,8.13,0,1,0,0,16.25h37.91V138M396.7,178.65h27.08"/></g></mask><clipPath id="clip-path"><rect class="cls-3" x="271.51" y="19" width="64" height="64"/></clipPath></defs><g id="圖層_2" data-name="圖層 2"><circle class="cls-4" cx="303.51" cy="51" r="49.5"/></g><g id="圖層_2_拷貝_3" data-name="圖層 2 拷貝 3"><circle class="cls-4" cx="170.34" cy="157.52" r="49.5"/></g><g id="圖層_2_拷貝_2" data-name="圖層 2 拷貝 2"><circle class="cls-4" cx="52.27" cy="51" r="49.5"/></g><g id="圖層_2_拷貝" data-name="圖層 2 拷貝"><circle class="cls-4" cx="410.24" cy="157.52" r="49.5"/></g><g id="圖層_6" data-name="圖層 6"><path class="cls-5" d="M188.89,139.85h-2.65V137.2a2.65,2.65,0,0,0-5.3,0v2.65h-21.2V137.2a2.65,2.65,0,0,0-5.3,0v2.65h-2.65a7.81,7.81,0,0,0-7.95,8v2.65h53V147.8A7.8,7.8,0,0,0,188.89,139.85Zm-45,39.75a7.81,7.81,0,0,0,7.95,8h37.1a7.81,7.81,0,0,0,8-8V155.75h-53Zm39.75-18.55a2.65,2.65,0,1,1-2.65,2.65A2.5,2.5,0,0,1,183.59,161.05Zm0,10.6a2.65,2.65,0,1,1-2.65,2.65A2.5,2.5,0,0,1,183.59,171.65Zm-13.25-10.6a2.65,2.65,0,1,1-2.65,2.65A2.5,2.5,0,0,1,170.34,161.05Zm0,10.6a2.65,2.65,0,1,1-2.65,2.65A2.5,2.5,0,0,1,170.34,171.65Zm-13.25-10.6a2.65,2.65,0,1,1-2.65,2.65A2.5,2.5,0,0,1,157.09,161.05Zm0,10.6a2.65,2.65,0,1,1-2.65,2.65A2.5,2.5,0,0,1,157.09,171.65Z"/></g><g id="圖層_7" data-name="圖層 7"><g class="cls-6"><path class="cls-5" d="M377.74,128.55h65v65h-65Z"/></g></g><g id="圖層_8" data-name="圖層 8"><g class="cls-7"><path class="cls-5" d="M285.74,52.78V38.56H280.4a5.33,5.33,0,0,0-5.33,5.33v32a1.8,1.8,0,0,0,.27.93,1.71,1.71,0,0,0,1.64.8,1.69,1.69,0,0,0,.86-.33L287,70.56h23.89a4.91,4.91,0,0,0,3.64-1.46,4.83,4.83,0,0,0,1.09-1.67,5,5,0,0,0,.34-2v-2H296.4a10.65,10.65,0,0,1-10.66-10.66Z"/><path class="cls-5" d="M326.63,26.11H296.4a5.33,5.33,0,0,0-5.33,5.33V52.78a5.33,5.33,0,0,0,5.33,5.33h24.09l8.5,6.6a1.78,1.78,0,0,0,.86.33,1.68,1.68,0,0,0,1.65-.79,1.76,1.76,0,0,0,.28-1V31.44a5.33,5.33,0,0,0-5.15-5.33Z"/></g></g><g id="圖層_9" data-name="圖層 9"><path class="cls-5" d="M49,55.34v19.2H55.5V55.34A25.86,25.86,0,0,1,78.12,81H26.41A25.86,25.86,0,0,1,49,55.34Zm3.23-3.43A19.4,19.4,0,1,1,71.66,32.52,19.39,19.39,0,0,1,52.27,51.91Z"/></g><g id="圖層_10" data-name="圖層 10"><path class="cls-8" d="M98.5,224.33h-3V223.1h3a3.14,3.14,0,0,0,1.43-.28,1.71,1.71,0,0,0,.79-.78,2.54,2.54,0,0,0,0-2.24,1.91,1.91,0,0,0-.79-.83,2.88,2.88,0,0,0-1.43-.32H95.81v10.14H94.3V217.42h4.2a5,5,0,0,1,2.18.44A3.19,3.19,0,0,1,102,219.1a3.5,3.5,0,0,1,.46,1.79,3.64,3.64,0,0,1-.46,1.86,3,3,0,0,1-1.35,1.18A5.27,5.27,0,0,1,98.5,224.33Zm7.12-2.66v7.12h-1.44v-8.45h1.4Zm2.64-1.38v1.35a1.4,1.4,0,0,0-.34,0l-.36,0a2.19,2.19,0,0,0-.88.16,1.74,1.74,0,0,0-.65.44,1.91,1.91,0,0,0-.42.67,3,3,0,0,0-.2.84l-.4.24a7.33,7.33,0,0,1,.14-1.44,4.24,4.24,0,0,1,.48-1.19,2.33,2.33,0,0,1,.81-.81,2.29,2.29,0,0,1,1.19-.3,2.63,2.63,0,0,1,.36,0A1.21,1.21,0,0,1,108.26,220.29Zm.8,4.37v-.18a5.46,5.46,0,0,1,.26-1.7,4.12,4.12,0,0,1,.77-1.36,3.39,3.39,0,0,1,1.21-.91,3.74,3.74,0,0,1,1.59-.33,3.8,3.8,0,0,1,1.61.33,3.31,3.31,0,0,1,1.21.91,4,4,0,0,1,.78,1.36,5.18,5.18,0,0,1,.26,1.7v.18a5.12,5.12,0,0,1-.26,1.69,4.11,4.11,0,0,1-.78,1.37,3.42,3.42,0,0,1-1.21.91,3.82,3.82,0,0,1-1.59.32,3.91,3.91,0,0,1-1.6-.32,3.55,3.55,0,0,1-1.22-.91,4.27,4.27,0,0,1-.77-1.37A5.39,5.39,0,0,1,109.06,224.66Zm1.44-.18v.18a4.56,4.56,0,0,0,.15,1.19,3.2,3.2,0,0,0,.45,1,2.26,2.26,0,0,0,.76.68,2.2,2.2,0,0,0,1,.24,2.16,2.16,0,0,0,1-.24,2.33,2.33,0,0,0,.75-.68,3,3,0,0,0,.44-1,4.17,4.17,0,0,0,.16-1.19v-.18a4.1,4.1,0,0,0-.16-1.18,2.81,2.81,0,0,0-.45-1,2.25,2.25,0,0,0-.75-.69,2.31,2.31,0,0,0-2.09,0,2.25,2.25,0,0,0-.75.69,3,3,0,0,0-.45,1A4.49,4.49,0,0,0,110.5,224.48Zm8.11-4.14h1.45v9.46a3,3,0,0,1-.25,1.31,1.67,1.67,0,0,1-.74.81,2.37,2.37,0,0,1-1.22.29,4.53,4.53,0,0,1-.46,0,3.24,3.24,0,0,1-.44-.1v-1.16l.33.05.33,0a1.13,1.13,0,0,0,.54-.12.71.71,0,0,0,.33-.37,1.64,1.64,0,0,0,.12-.69Zm-.15-2.24a.84.84,0,0,1,.22-.6.79.79,0,0,1,.63-.24.83.83,0,0,1,.64.24.89.89,0,0,1,.22.6.85.85,0,0,1-.22.57.83.83,0,0,1-.64.24.79.79,0,0,1-.85-.81ZM125.9,229a4.11,4.11,0,0,1-1.6-.3,3.77,3.77,0,0,1-1.23-.85,4.13,4.13,0,0,1-.78-1.3,4.78,4.78,0,0,1-.27-1.64v-.33a5.2,5.2,0,0,1,.3-1.83,4.3,4.3,0,0,1,.83-1.38,3.62,3.62,0,0,1,1.19-.85,3.44,3.44,0,0,1,1.37-.29,3.76,3.76,0,0,1,1.57.31,2.82,2.82,0,0,1,1.08.88,3.89,3.89,0,0,1,.63,1.31,6.52,6.52,0,0,1,.2,1.64V225h-6.31v-1.18h4.87v-.11a3.44,3.44,0,0,0-.24-1.09,2,2,0,0,0-.62-.88,1.84,1.84,0,0,0-1.18-.34,2,2,0,0,0-1.61.82,3,3,0,0,0-.46,1,5,5,0,0,0-.17,1.35v.33a3.77,3.77,0,0,0,.17,1.13,3,3,0,0,0,.49.93,2.33,2.33,0,0,0,1.85.85,2.63,2.63,0,0,0,1.3-.31,3.35,3.35,0,0,0,.93-.84l.87.7a4.11,4.11,0,0,1-.69.78,3.21,3.21,0,0,1-1,.61A4,4,0,0,1,125.9,229Zm8.36-1.19a2.14,2.14,0,0,0,1-.21,1.8,1.8,0,0,0,.72-.58,1.53,1.53,0,0,0,.32-.85h1.38a2.63,2.63,0,0,1-.51,1.4,3.48,3.48,0,0,1-2.86,1.43,3.76,3.76,0,0,1-1.66-.34,3.22,3.22,0,0,1-1.17-.92,4.18,4.18,0,0,1-.7-1.34,5.71,5.71,0,0,1-.23-1.62v-.33a5.64,5.64,0,0,1,.23-1.61,4.13,4.13,0,0,1,.7-1.35,3.22,3.22,0,0,1,1.17-.92,3.76,3.76,0,0,1,1.66-.34,3.61,3.61,0,0,1,1.74.41,3,3,0,0,1,1.16,1.09,3.17,3.17,0,0,1,.47,1.56h-1.38a2,2,0,0,0-.29-.94,1.85,1.85,0,0,0-.69-.67,2,2,0,0,0-1-.26,2.19,2.19,0,0,0-1.12.27,2,2,0,0,0-.71.7,3.38,3.38,0,0,0-.37,1,5.49,5.49,0,0,0-.11,1.08v.33a5.68,5.68,0,0,0,.11,1.09,2.89,2.89,0,0,0,.37,1,1.91,1.91,0,0,0,.71.7A2.24,2.24,0,0,0,134.26,227.76Zm8.53-7.42v1.11h-4.57v-1.11Zm-3-2.06h1.44v8.42a1.28,1.28,0,0,0,.14.65.68.68,0,0,0,.34.29,1.63,1.63,0,0,0,.45.07,1.69,1.69,0,0,0,.38,0l.3-.06v1.18a2.58,2.58,0,0,1-.45.1,3.13,3.13,0,0,1-.67.06,2.25,2.25,0,0,1-1-.21A1.53,1.53,0,0,1,140,228a3,3,0,0,1-.26-1.34Zm9.38-.86h1.46l3.73,9.27,3.72-9.27h1.47l-4.63,11.37h-1.14Zm-.47,0H150l.22,6.93v4.44h-1.5Zm10,0H160v11.37h-1.5v-4.44Zm8.7,9.93V223a1.79,1.79,0,0,0-.2-.86,1.3,1.3,0,0,0-.6-.58,2.06,2.06,0,0,0-1-.2,2.35,2.35,0,0,0-1,.18,1.63,1.63,0,0,0-.64.5,1.07,1.07,0,0,0-.23.65h-1.44a1.88,1.88,0,0,1,.23-.9,2.78,2.78,0,0,1,.67-.8,3.29,3.29,0,0,1,1.06-.58,4.36,4.36,0,0,1,1.39-.22,4.12,4.12,0,0,1,1.63.31,2.51,2.51,0,0,1,1.11.95,2.84,2.84,0,0,1,.41,1.57V227a5.81,5.81,0,0,0,.07.9,3.48,3.48,0,0,0,.22.82v.12h-1.51a2.85,2.85,0,0,1-.17-.66A5.54,5.54,0,0,1,167.41,227.35Zm.25-3.68,0,1h-1.47a6.07,6.07,0,0,0-1.1.1,2.74,2.74,0,0,0-.81.29,1.41,1.41,0,0,0-.5.5,1.31,1.31,0,0,0-.17.67,1.49,1.49,0,0,0,.18.73,1.29,1.29,0,0,0,.54.52,1.87,1.87,0,0,0,.9.19,2.36,2.36,0,0,0,1.17-.28,2.47,2.47,0,0,0,.8-.69,1.38,1.38,0,0,0,.33-.79l.62.7a2.26,2.26,0,0,1-.3.73,3.46,3.46,0,0,1-.65.76,3.35,3.35,0,0,1-.95.6A3.07,3.07,0,0,1,165,229a3.15,3.15,0,0,1-1.51-.34,2.5,2.5,0,0,1-1-.9,2.31,2.31,0,0,1-.35-1.27,2.58,2.58,0,0,1,.26-1.2,2.34,2.34,0,0,1,.77-.86,3.47,3.47,0,0,1,1.2-.53,6.33,6.33,0,0,1,1.57-.18Zm4.91-1.53v6.65h-1.44v-8.45h1.37Zm-.34,2.1-.6,0a4.84,4.84,0,0,1,.26-1.6,3.91,3.91,0,0,1,.7-1.29,3,3,0,0,1,1.08-.84,3.09,3.09,0,0,1,1.4-.31,3.56,3.56,0,0,1,1.12.17,2,2,0,0,1,.85.54,2.38,2.38,0,0,1,.55,1,4.76,4.76,0,0,1,.19,1.41v5.54h-1.46v-5.55a2.47,2.47,0,0,0-.19-1.07,1.19,1.19,0,0,0-.57-.58,2,2,0,0,0-.92-.19,2.19,2.19,0,0,0-1,.23,2.5,2.5,0,0,0-.76.62,3.37,3.37,0,0,0-.49.92A3.43,3.43,0,0,0,172.23,224.24ZM185,227.35V223a1.69,1.69,0,0,0-.21-.86,1.28,1.28,0,0,0-.59-.58,2.09,2.09,0,0,0-1-.2,2.43,2.43,0,0,0-1,.18,1.7,1.7,0,0,0-.64.5,1.06,1.06,0,0,0-.22.65H179.9a1.9,1.9,0,0,1,.24-.9,2.63,2.63,0,0,1,.67-.8,3.29,3.29,0,0,1,1.06-.58,4.36,4.36,0,0,1,1.39-.22,4.12,4.12,0,0,1,1.63.31,2.51,2.51,0,0,1,1.11.95,2.84,2.84,0,0,1,.4,1.57V227a7.38,7.38,0,0,0,.07.9,3.47,3.47,0,0,0,.23.82v.12h-1.51a2.85,2.85,0,0,1-.17-.66A5.54,5.54,0,0,1,185,227.35Zm.25-3.68v1h-1.46a6,6,0,0,0-1.1.1,2.74,2.74,0,0,0-.81.29,1.33,1.33,0,0,0-.5.5,1.22,1.22,0,0,0-.17.67,1.49,1.49,0,0,0,.18.73,1.27,1.27,0,0,0,.53.52,1.93,1.93,0,0,0,.9.19,2.3,2.3,0,0,0,1.17-.28,2.51,2.51,0,0,0,.81-.69,1.53,1.53,0,0,0,.33-.79l.61.7a2,2,0,0,1-.29.73,3.55,3.55,0,0,1-1.6,1.36,3.08,3.08,0,0,1-1.24.24,3.2,3.2,0,0,1-1.51-.34,2.57,2.57,0,0,1-1-.9,2.4,2.4,0,0,1-.35-1.27,2.59,2.59,0,0,1,.27-1.2,2.4,2.4,0,0,1,.76-.86,3.61,3.61,0,0,1,1.21-.53,6.33,6.33,0,0,1,1.57-.18Zm8.94-3.33h1.31v8.27a3.8,3.8,0,0,1-.45,1.91,3,3,0,0,1-1.26,1.19,4,4,0,0,1-1.86.42,4.66,4.66,0,0,1-1-.14,4.39,4.39,0,0,1-1.16-.46,3,3,0,0,1-.95-.87l.76-.86a3.16,3.16,0,0,0,1.11.89,2.89,2.89,0,0,0,1.16.25,2.54,2.54,0,0,0,1.18-.26,1.74,1.74,0,0,0,.78-.76,2.5,2.5,0,0,0,.28-1.24V222.2Zm-5.82,4.32v-.17a6.34,6.34,0,0,1,.23-1.75,4.26,4.26,0,0,1,.66-1.37,3.09,3.09,0,0,1,1.06-.88,3.12,3.12,0,0,1,1.39-.31,3.35,3.35,0,0,1,1.39.28,2.65,2.65,0,0,1,1,.81,3.79,3.79,0,0,1,.67,1.26,8.07,8.07,0,0,1,.33,1.68v.72a7.27,7.27,0,0,1-.33,1.67,3.75,3.75,0,0,1-.67,1.27,2.63,2.63,0,0,1-1,.8,3.26,3.26,0,0,1-1.41.28,3,3,0,0,1-1.37-.32,3.23,3.23,0,0,1-1.05-.9,4.22,4.22,0,0,1-.67-1.36A6.25,6.25,0,0,1,188.33,224.66Zm1.45-.17v.17a5.65,5.65,0,0,0,.12,1.19,3.14,3.14,0,0,0,.4,1,2,2,0,0,0,.7.67,2.08,2.08,0,0,0,1,.23,2.17,2.17,0,0,0,1.19-.3,2.22,2.22,0,0,0,.74-.81,4.3,4.3,0,0,0,.44-1.08v-1.89a3.91,3.91,0,0,0-.26-.82,2.4,2.4,0,0,0-.46-.72,1.82,1.82,0,0,0-.68-.51,2.18,2.18,0,0,0-.95-.19,1.93,1.93,0,0,0-1,.25,2,2,0,0,0-.7.67,3.16,3.16,0,0,0-.4,1A5.55,5.55,0,0,0,189.78,224.49ZM201.17,229a4.11,4.11,0,0,1-1.6-.3,3.57,3.57,0,0,1-1.23-.85,3.79,3.79,0,0,1-.78-1.3,4.78,4.78,0,0,1-.27-1.64v-.33a5.2,5.2,0,0,1,.3-1.83,4.13,4.13,0,0,1,.83-1.38,3.52,3.52,0,0,1,1.19-.85,3.44,3.44,0,0,1,1.37-.29,3.71,3.71,0,0,1,1.56.31,2.78,2.78,0,0,1,1.09.88,3.7,3.7,0,0,1,.62,1.31,6.08,6.08,0,0,1,.21,1.64V225h-6.32v-1.18H203v-.11a3.72,3.72,0,0,0-.23-1.09,1.94,1.94,0,0,0-.63-.88,1.79,1.79,0,0,0-1.17-.34,2,2,0,0,0-.91.21,2.05,2.05,0,0,0-.71.61,3.24,3.24,0,0,0-.46,1,5,5,0,0,0-.16,1.35v.33a3.77,3.77,0,0,0,.16,1.13,3.17,3.17,0,0,0,.49.93,2.5,2.5,0,0,0,.79.62,2.47,2.47,0,0,0,1.07.23,2.56,2.56,0,0,0,1.29-.31,3.09,3.09,0,0,0,.93-.84l.88.7a4.18,4.18,0,0,1-.7.78,3.21,3.21,0,0,1-1,.61A3.88,3.88,0,0,1,201.17,229Zm6.41-6.93v6.77h-1.45v-8.45h1.37Zm-.29,2.22-.68,0a5.78,5.78,0,0,1,.23-1.6,3.82,3.82,0,0,1,.65-1.29,2.77,2.77,0,0,1,1.07-.84,3.32,3.32,0,0,1,1.48-.31,3.52,3.52,0,0,1,1.1.17,2.18,2.18,0,0,1,.86.53,2.25,2.25,0,0,1,.57.92,3.89,3.89,0,0,1,.21,1.36v5.63h-1.45v-5.56a2.14,2.14,0,0,0-.22-1.06,1.31,1.31,0,0,0-.63-.58,2.18,2.18,0,0,0-.95-.19,2.26,2.26,0,0,0-1.07.23,1.8,1.8,0,0,0-.69.62,2.92,2.92,0,0,0-.38.92A5.25,5.25,0,0,0,207.29,224.24Zm5.47-.79-1,.29a4.27,4.27,0,0,1,.23-1.33,3.56,3.56,0,0,1,.65-1.14,2.94,2.94,0,0,1,1.05-.79,3.3,3.3,0,0,1,1.43-.3,3.71,3.71,0,0,1,1.21.18,2.22,2.22,0,0,1,.89.56,2.3,2.3,0,0,1,.55.94,4.38,4.38,0,0,1,.19,1.38v5.55h-1.45v-5.57a2.22,2.22,0,0,0-.23-1.1,1.16,1.16,0,0,0-.63-.55,2.44,2.44,0,0,0-1-.17,2,2,0,0,0-.84.17,1.65,1.65,0,0,0-.62.45,1.92,1.92,0,0,0-.38.65A2.2,2.2,0,0,0,212.76,223.45Zm10.92,5.5a4.15,4.15,0,0,1-1.6-.3,3.62,3.62,0,0,1-1.22-.85,4,4,0,0,1-.79-1.3,4.78,4.78,0,0,1-.27-1.64v-.33a5,5,0,0,1,.31-1.83,4.11,4.11,0,0,1,.82-1.38,3.62,3.62,0,0,1,1.19-.85,3.45,3.45,0,0,1,1.38-.29,3.74,3.74,0,0,1,1.56.31,2.82,2.82,0,0,1,1.08.88,3.71,3.71,0,0,1,.63,1.31,6.52,6.52,0,0,1,.2,1.64V225h-6.31v-1.18h4.87v-.11a3.44,3.44,0,0,0-.24-1.09,2,2,0,0,0-.62-.88,1.83,1.83,0,0,0-1.17-.34,2,2,0,0,0-.91.21,2,2,0,0,0-.71.61,3,3,0,0,0-.46,1,5,5,0,0,0-.17,1.35v.33a3.77,3.77,0,0,0,.17,1.13,3,3,0,0,0,.49.93,2.39,2.39,0,0,0,.79.62,2.43,2.43,0,0,0,1.06.23,2.63,2.63,0,0,0,1.3-.31,3.35,3.35,0,0,0,.93-.84l.87.7a4.11,4.11,0,0,1-.69.78,3.21,3.21,0,0,1-1,.61A4,4,0,0,1,223.68,229Zm6.43-6.81v6.65h-1.45v-8.45H230Zm-.35,2.1-.6,0a5.11,5.11,0,0,1,.26-1.6,3.91,3.91,0,0,1,.7-1.29,3,3,0,0,1,1.08-.84,3.09,3.09,0,0,1,1.4-.31,3.56,3.56,0,0,1,1.12.17,1.94,1.94,0,0,1,.85.54,2.27,2.27,0,0,1,.55,1,4.45,4.45,0,0,1,.19,1.41v5.54h-1.45v-5.55a2.46,2.46,0,0,0-.2-1.07,1.19,1.19,0,0,0-.57-.58,2,2,0,0,0-.92-.19,2.19,2.19,0,0,0-1,.23,2.35,2.35,0,0,0-.75.62,3.14,3.14,0,0,0-.5.92A3.43,3.43,0,0,0,229.76,224.24Zm11.28-3.9v1.11h-4.57v-1.11Zm-3-2.06h1.44v8.42a1.28,1.28,0,0,0,.14.65.68.68,0,0,0,.34.29,1.63,1.63,0,0,0,.45.07,1.69,1.69,0,0,0,.38,0l.3-.06v1.18a2.58,2.58,0,0,1-.45.1,3.13,3.13,0,0,1-.67.06,2.25,2.25,0,0,1-1-.21,1.53,1.53,0,0,1-.71-.71,3,3,0,0,1-.26-1.34Z"/></g><g id="圖層_11" data-name="圖層 11"><path class="cls-8" d="M6.73,118.87h1.5v7.69a3.71,3.71,0,0,1-.57,2.13A3.57,3.57,0,0,1,6.15,130a5,5,0,0,1-2,.42A5,5,0,0,1,2,130a3.44,3.44,0,0,1-1.48-1.29A3.87,3.87,0,0,1,0,126.56v-7.69H1.49v7.69A3,3,0,0,0,1.82,128a2,2,0,0,0,.91.86,3.18,3.18,0,0,0,1.38.28,3.07,3.07,0,0,0,1.37-.28,2,2,0,0,0,.93-.86,3.08,3.08,0,0,0,.32-1.47Zm5.49,0v11.37H10.71V118.87Zm8.22,0v11.37H18.93V118.87ZM25.2,124v1.24H20.11V124Zm.78-5.11v1.23H20.11v-1.23Zm3.15-.63v12H27.67v-12Zm1.93,7.87v-.18a5.18,5.18,0,0,1,.27-1.7,4.1,4.1,0,0,1,.76-1.36A3.48,3.48,0,0,1,33.3,122a4,4,0,0,1,3.2,0,3.34,3.34,0,0,1,1.22.91,3.79,3.79,0,0,1,.77,1.36,5.18,5.18,0,0,1,.27,1.7v.18a5.12,5.12,0,0,1-.27,1.69,3.92,3.92,0,0,1-.77,1.37,3.51,3.51,0,0,1-1.21.91,3.87,3.87,0,0,1-1.6.32,3.94,3.94,0,0,1-1.6-.32,3.65,3.65,0,0,1-1.22-.91,4.25,4.25,0,0,1-.76-1.37A5.12,5.12,0,0,1,31.06,126.11Zm1.45-.18v.18a4.56,4.56,0,0,0,.15,1.19,3.18,3.18,0,0,0,.44,1,2.36,2.36,0,0,0,.76.68,2.2,2.2,0,0,0,1,.24,2.06,2.06,0,0,0,1.79-.92,3.2,3.2,0,0,0,.45-1,4.56,4.56,0,0,0,.15-1.19v-.18a4.49,4.49,0,0,0-.15-1.18,3,3,0,0,0-.45-1,2.15,2.15,0,0,0-.75-.69,2.33,2.33,0,0,0-2.1,0,2.15,2.15,0,0,0-.75.69,3,3,0,0,0-.44,1A4.49,4.49,0,0,0,32.51,125.93Zm10.2,2.81,2.17-7h1l-.19,1.38-2.21,7.07h-.93Zm-1.46-7,1.85,7,.13,1.42h-1l-2.46-8.45Zm6.66,7,1.77-7h1.44l-2.46,8.45h-1Zm-1.86-7,2.12,6.83.24,1.62h-.92l-2.27-7.09L45,121.79Zm13.82,8.45H57.49l0-1.23h2.36a3.84,3.84,0,0,0,2-.5,3.24,3.24,0,0,0,1.22-1.44,5.38,5.38,0,0,0,.41-2.17v-.7a6,6,0,0,0-.23-1.73,3.62,3.62,0,0,0-.69-1.29,2.9,2.9,0,0,0-1.11-.81A3.85,3.85,0,0,0,60,120.1H57.45v-1.23H60a5.4,5.4,0,0,1,2,.37,4.43,4.43,0,0,1,1.58,1.07,4.66,4.66,0,0,1,1,1.69,6.38,6.38,0,0,1,.36,2.22v.68a6.46,6.46,0,0,1-.36,2.22,4.62,4.62,0,0,1-1,1.68A4.45,4.45,0,0,1,62,129.87,5.73,5.73,0,0,1,59.87,130.24ZM58.3,118.87v11.37H56.79V118.87ZM70.58,130.4a4.11,4.11,0,0,1-1.6-.3,3.57,3.57,0,0,1-1.23-.85A3.79,3.79,0,0,1,67,128a4.82,4.82,0,0,1-.27-1.64V126a5.2,5.2,0,0,1,.3-1.83,4.13,4.13,0,0,1,.83-1.38,3.52,3.52,0,0,1,1.19-.85,3.44,3.44,0,0,1,1.37-.29,3.71,3.71,0,0,1,1.56.31,2.78,2.78,0,0,1,1.09.88,3.7,3.7,0,0,1,.62,1.31,6.08,6.08,0,0,1,.21,1.64v.65H67.55v-1.18h4.87v-.11a3.72,3.72,0,0,0-.23-1.09,1.94,1.94,0,0,0-.63-.88,1.79,1.79,0,0,0-1.17-.34,2,2,0,0,0-.91.21,2.05,2.05,0,0,0-.71.61,3.24,3.24,0,0,0-.46,1,5,5,0,0,0-.16,1.35v.33a3.77,3.77,0,0,0,.16,1.13,3.17,3.17,0,0,0,.49.93,2.5,2.5,0,0,0,.79.62A2.69,2.69,0,0,0,72,128.9a2.93,2.93,0,0,0,.93-.83l.88.69a3.93,3.93,0,0,1-.7.79,3.21,3.21,0,0,1-1,.61A3.88,3.88,0,0,1,70.58,130.4Zm9.9-2.4a1.27,1.27,0,0,0-.14-.58,1.2,1.2,0,0,0-.56-.49,4.51,4.51,0,0,0-1.25-.39,10.94,10.94,0,0,1-1.27-.35,3.6,3.6,0,0,1-1-.5,2,2,0,0,1-.6-.68,1.78,1.78,0,0,1-.22-.91,2.24,2.24,0,0,1,.22-.95,2.5,2.5,0,0,1,.64-.78,2.94,2.94,0,0,1,1-.54,4,4,0,0,1,1.29-.2,3.84,3.84,0,0,1,1.73.36,2.66,2.66,0,0,1,1.1,1,2.37,2.37,0,0,1,.39,1.32H80.39a1.26,1.26,0,0,0-.21-.68,1.6,1.6,0,0,0-.6-.55,1.89,1.89,0,0,0-1-.22,2.14,2.14,0,0,0-1,.19,1.3,1.3,0,0,0-.54.46,1.11,1.11,0,0,0-.16.59.93.93,0,0,0,.08.42.9.9,0,0,0,.29.34,2.42,2.42,0,0,0,.6.28,8.92,8.92,0,0,0,1,.27,7.28,7.28,0,0,1,1.71.56,2.51,2.51,0,0,1,1,.8,2,2,0,0,1,.33,1.16,2.24,2.24,0,0,1-.23,1,2.13,2.13,0,0,1-.67.8,3.32,3.32,0,0,1-1,.52,4.55,4.55,0,0,1-1.33.18,4.13,4.13,0,0,1-1.89-.4,3,3,0,0,1-1.18-1,2.51,2.51,0,0,1-.39-1.34h1.45a1.5,1.5,0,0,0,.34,1,1.79,1.79,0,0,0,.77.49,3.13,3.13,0,0,0,.9.14,2.63,2.63,0,0,0,1-.16,1.31,1.31,0,0,0,.62-.43A1,1,0,0,0,80.48,128Zm4.91-6.21v8.45H83.94v-8.45Zm-1.56-2.24A.88.88,0,0,1,84,119a.82.82,0,0,1,.64-.24.79.79,0,0,1,.63.24.85.85,0,0,1,.23.6.81.81,0,0,1-.23.57.79.79,0,0,1-.63.24.82.82,0,0,1-.64-.24A.84.84,0,0,1,83.83,119.55Zm9.36,2.24H94.5v8.27a3.8,3.8,0,0,1-.45,1.91,3,3,0,0,1-1.27,1.19,4,4,0,0,1-1.86.42,4.82,4.82,0,0,1-1-.14,4.52,4.52,0,0,1-1.16-.46,3,3,0,0,1-.94-.87l.76-.86a3,3,0,0,0,1.11.89,2.84,2.84,0,0,0,1.15.25,2.58,2.58,0,0,0,1.19-.26,1.82,1.82,0,0,0,.77-.76,2.5,2.5,0,0,0,.28-1.24v-6.48Zm-5.82,4.32v-.17a6.35,6.35,0,0,1,.22-1.75,4.17,4.17,0,0,1,.67-1.37,3.06,3.06,0,0,1,1-.88,3.15,3.15,0,0,1,1.39-.31,3.31,3.31,0,0,1,1.39.28,2.66,2.66,0,0,1,1,.81,4,4,0,0,1,.66,1.26,8,8,0,0,1,.34,1.68v.72a7.25,7.25,0,0,1-.34,1.67,3.91,3.91,0,0,1-.66,1.27,2.73,2.73,0,0,1-1,.8,3.24,3.24,0,0,1-1.4.28,3,3,0,0,1-1.38-.32,3.3,3.3,0,0,1-1-.9,4.23,4.23,0,0,1-.68-1.36A6.26,6.26,0,0,1,87.37,126.11Zm1.44-.17v.17a5,5,0,0,0,.13,1.19,3.14,3.14,0,0,0,.4,1,1.85,1.85,0,0,0,1.7.9,2.19,2.19,0,0,0,1.19-.3,2.3,2.3,0,0,0,.74-.81,4.7,4.7,0,0,0,.44-1.08v-1.89a4.23,4.23,0,0,0-.27-.83,2.26,2.26,0,0,0-.45-.71A1.82,1.82,0,0,0,92,123a2.19,2.19,0,0,0-1-.19,2,2,0,0,0-1,.25,2,2,0,0,0-.69.67,3.16,3.16,0,0,0-.4,1A5,5,0,0,0,88.81,125.94Zm9.33-2.35v6.65H96.7v-8.45h1.36Zm-.34,2.1-.6,0a5.11,5.11,0,0,1,.25-1.6,3.83,3.83,0,0,1,.71-1.29,3.15,3.15,0,0,1,2.47-1.15,3.62,3.62,0,0,1,1.13.17,2.08,2.08,0,0,1,.85.53,2.5,2.5,0,0,1,.55,1,4.74,4.74,0,0,1,.18,1.41v5.54h-1.45v-5.55a2.47,2.47,0,0,0-.19-1.07,1.19,1.19,0,0,0-.57-.58,2,2,0,0,0-.93-.19,2.14,2.14,0,0,0-1,.23,2.39,2.39,0,0,0-.76.62,3.22,3.22,0,0,0-.66,2Z"/></g><g id="圖層_12" data-name="圖層 12"><path class="cls-8" d="M363.31,219.14h1.5v7.69a3.77,3.77,0,0,1-.57,2.14,3.55,3.55,0,0,1-1.51,1.28,5,5,0,0,1-2,.42,5,5,0,0,1-2.09-.42,3.41,3.41,0,0,1-1.48-1.28,3.93,3.93,0,0,1-.54-2.14v-7.69h1.49v7.69a2.91,2.91,0,0,0,.33,1.47,2,2,0,0,0,.91.86,3.18,3.18,0,0,0,1.38.28,3.07,3.07,0,0,0,1.37-.28,2,2,0,0,0,.93-.86,3,3,0,0,0,.32-1.47Zm4.85,0,2.73,4.36,2.74-4.36h1.75l-3.59,5.63,3.68,5.74H373.7l-2.81-4.44-2.8,4.44h-1.78l3.68-5.74-3.59-5.63Zm17.22,6.91h-3v-1.22h3a3.25,3.25,0,0,0,1.43-.28,1.73,1.73,0,0,0,.79-.79,2.54,2.54,0,0,0,0-2.24,1.91,1.91,0,0,0-.79-.83,2.86,2.86,0,0,0-1.43-.32h-2.69v10.14h-1.51V219.14h4.2a5,5,0,0,1,2.18.44,3.19,3.19,0,0,1,1.35,1.24,3.43,3.43,0,0,1,.46,1.79,3.58,3.58,0,0,1-.46,1.87,3,3,0,0,1-1.35,1.17A5.27,5.27,0,0,1,385.38,226.05Zm7.12-2.66v7.12h-1.44v-8.45h1.4Zm2.64-1.38v1.35a2.15,2.15,0,0,0-.34-.05h-.36a2.39,2.39,0,0,0-.88.15,1.87,1.87,0,0,0-.65.44,2,2,0,0,0-.42.67,3.23,3.23,0,0,0-.2.84l-.4.24a6.63,6.63,0,0,1,.15-1.44,4,4,0,0,1,.47-1.19,2.51,2.51,0,0,1,.81-.81,2.29,2.29,0,0,1,1.19-.3,2.47,2.47,0,0,1,.36,0A1.21,1.21,0,0,1,395.14,222Zm.8,4.37v-.18a5.39,5.39,0,0,1,.26-1.69,4.07,4.07,0,0,1,.77-1.37,3.51,3.51,0,0,1,1.21-.91,4,4,0,0,1,3.2,0,3.55,3.55,0,0,1,1.22.91,4.07,4.07,0,0,1,.77,1.37,5.12,5.12,0,0,1,.26,1.69v.18a5.18,5.18,0,0,1-.26,1.7,4.22,4.22,0,0,1-.77,1.36,3.55,3.55,0,0,1-1.22.91,3.82,3.82,0,0,1-1.59.32,3.91,3.91,0,0,1-1.6-.32,3.65,3.65,0,0,1-1.22-.91,4.22,4.22,0,0,1-.77-1.36A5.46,5.46,0,0,1,395.94,226.38Zm1.44-.18v.18a4.7,4.7,0,0,0,.15,1.2,3.14,3.14,0,0,0,.45,1,2.16,2.16,0,0,0,.76.68,2.2,2.2,0,0,0,1.05.24,2.16,2.16,0,0,0,1-.24,2.22,2.22,0,0,0,.75-.68,3.14,3.14,0,0,0,.45-1,4.7,4.7,0,0,0,.15-1.2v-.18A4.54,4.54,0,0,0,402,225a3,3,0,0,0-.46-1,2.25,2.25,0,0,0-.75-.69,2.13,2.13,0,0,0-1-.25,2.2,2.2,0,0,0-1,.25,2.25,2.25,0,0,0-.75.69,3.2,3.2,0,0,0-.45,1A4.54,4.54,0,0,0,397.38,226.2Zm10.22,4.31h-1.44v-9.34a3.28,3.28,0,0,1,.33-1.54,2.15,2.15,0,0,1,1-.95,3.11,3.11,0,0,1,1.48-.33,4.19,4.19,0,0,1,.5,0,2.77,2.77,0,0,1,.5.1l-.08,1.17-.37-.05-.41,0a1.62,1.62,0,0,0-.79.19,1.17,1.17,0,0,0-.5.53,1.93,1.93,0,0,0-.18.87Zm1.8-8.45v1.11h-4.58v-1.11Zm4.93,8.61a4.11,4.11,0,0,1-1.6-.3,3.53,3.53,0,0,1-1.23-.85,3.66,3.66,0,0,1-.78-1.29,4.84,4.84,0,0,1-.27-1.65v-.32a5.26,5.26,0,0,1,.3-1.84,4,4,0,0,1,.83-1.37,3.55,3.55,0,0,1,1.19-.86,3.44,3.44,0,0,1,1.37-.29,3.53,3.53,0,0,1,1.56.32,2.85,2.85,0,0,1,1.09.87,3.89,3.89,0,0,1,.63,1.31,6.54,6.54,0,0,1,.2,1.65v.64h-6.31v-1.18h4.86v-.11a3.79,3.79,0,0,0-.23-1.09,2,2,0,0,0-.63-.87,1.79,1.79,0,0,0-1.17-.35,1.93,1.93,0,0,0-.9.21,1.89,1.89,0,0,0-.71.61,3,3,0,0,0-.47,1,5.13,5.13,0,0,0-.16,1.36v.32a3.83,3.83,0,0,0,.16,1.14,2.92,2.92,0,0,0,.5.92,2.39,2.39,0,0,0,.79.62,2.27,2.27,0,0,0,1.06.23,2.47,2.47,0,0,0,1.29-.31,3.09,3.09,0,0,0,.93-.84l.88.7a3.9,3.9,0,0,1-.7.79,3.35,3.35,0,0,1-1,.61A4.2,4.2,0,0,1,414.33,230.67Zm9.9-2.4a1.27,1.27,0,0,0-.14-.58,1.26,1.26,0,0,0-.56-.49,4.51,4.51,0,0,0-1.25-.39,10.94,10.94,0,0,1-1.27-.35,3.91,3.91,0,0,1-1-.49,2.14,2.14,0,0,1-.6-.68,1.92,1.92,0,0,1-.21-.92,2.19,2.19,0,0,1,.21-.94,2.68,2.68,0,0,1,.64-.79,2.94,2.94,0,0,1,1-.54,4,4,0,0,1,1.29-.2,3.81,3.81,0,0,1,1.73.36,2.61,2.61,0,0,1,1.1,1,2.33,2.33,0,0,1,.39,1.32h-1.45a1.21,1.21,0,0,0-.21-.68,1.48,1.48,0,0,0-.6-.56,2,2,0,0,0-1-.22,2.14,2.14,0,0,0-1,.19,1.3,1.3,0,0,0-.54.46,1.18,1.18,0,0,0-.08,1,.81.81,0,0,0,.29.33,2.11,2.11,0,0,0,.6.28,8.92,8.92,0,0,0,1,.27,8.07,8.07,0,0,1,1.72.56,2.58,2.58,0,0,1,1,.81,2,2,0,0,1,.32,1.15,2.18,2.18,0,0,1-.23,1,2.29,2.29,0,0,1-.66.8,3.48,3.48,0,0,1-1,.51,4.55,4.55,0,0,1-1.33.18,4,4,0,0,1-1.89-.4,2.82,2.82,0,0,1-1.17-1,2.44,2.44,0,0,1-.4-1.34h1.45a1.53,1.53,0,0,0,.34.95,1.79,1.79,0,0,0,.77.49,2.82,2.82,0,0,0,.9.14,2.87,2.87,0,0,0,1-.15,1.46,1.46,0,0,0,.62-.43A1,1,0,0,0,424.23,228.27Zm8.26,0a1.16,1.16,0,0,0-.14-.58,1.23,1.23,0,0,0-.55-.49,4.62,4.62,0,0,0-1.25-.39,10.94,10.94,0,0,1-1.27-.35,4.18,4.18,0,0,1-1-.49,2.14,2.14,0,0,1-.6-.68,1.92,1.92,0,0,1-.21-.92,2.06,2.06,0,0,1,.22-.94,2.5,2.5,0,0,1,.63-.79,3.09,3.09,0,0,1,1-.54,4,4,0,0,1,1.28-.2,3.86,3.86,0,0,1,1.74.36,2.61,2.61,0,0,1,1.1,1,2.32,2.32,0,0,1,.38,1.32h-1.44a1.21,1.21,0,0,0-.21-.68,1.62,1.62,0,0,0-.6-.56,2,2,0,0,0-1-.22,2.09,2.09,0,0,0-1,.19,1.15,1.15,0,0,0-.63,1.48.92.92,0,0,0,.3.33,2.17,2.17,0,0,0,.59.28,9.18,9.18,0,0,0,1,.27,8.16,8.16,0,0,1,1.71.56,2.51,2.51,0,0,1,1,.81,2,2,0,0,1,.33,1.15,2.19,2.19,0,0,1-.24,1,2.29,2.29,0,0,1-.66.8,3.42,3.42,0,0,1-1,.51,4.62,4.62,0,0,1-1.34.18,4.06,4.06,0,0,1-1.89-.4,3,3,0,0,1-1.17-1,2.52,2.52,0,0,1-.4-1.34h1.46a1.47,1.47,0,0,0,.34.95,1.73,1.73,0,0,0,.77.49,2.8,2.8,0,0,0,.89.14,2.89,2.89,0,0,0,1-.15,1.42,1.42,0,0,0,.61-.43A1,1,0,0,0,432.49,228.27Zm4.92-6.21v8.45H436v-8.45Zm-1.56-2.24a.85.85,0,0,1,.21-.59.93.93,0,0,1,1.27,0,.82.82,0,0,1,.23.59.83.83,0,0,1-.23.58.85.85,0,0,1-1.48-.58Zm3.5,6.56v-.18a5.12,5.12,0,0,1,.26-1.69,3.9,3.9,0,0,1,.77-1.37,3.42,3.42,0,0,1,1.21-.91,4,4,0,0,1,3.19,0,3.46,3.46,0,0,1,1.22.91,3.92,3.92,0,0,1,.78,1.37,5.39,5.39,0,0,1,.26,1.69v.18a5.46,5.46,0,0,1-.26,1.7,4.06,4.06,0,0,1-.78,1.36,3.51,3.51,0,0,1-1.21.91,4.14,4.14,0,0,1-3.19,0,3.55,3.55,0,0,1-1.22-.91,4,4,0,0,1-.77-1.36A5.18,5.18,0,0,1,439.35,226.38Zm1.44-.18v.18a4.7,4.7,0,0,0,.15,1.2,3.37,3.37,0,0,0,.44,1,2.35,2.35,0,0,0,.76.68,2.24,2.24,0,0,0,1.06.24,2.19,2.19,0,0,0,1-.24,2.22,2.22,0,0,0,.75-.68,3.37,3.37,0,0,0,.44-1,4.29,4.29,0,0,0,.16-1.2v-.18a4.15,4.15,0,0,0-.16-1.18,3.2,3.2,0,0,0-.45-1,2.25,2.25,0,0,0-.75-.69,2.2,2.2,0,0,0-1.05-.25,2.26,2.26,0,0,0-1.05.25,2.46,2.46,0,0,0-.75.69,3.43,3.43,0,0,0-.44,1A4.54,4.54,0,0,0,440.79,226.2Zm9.51-2.33v6.64h-1.45v-8.45h1.37ZM450,226l-.6,0a5.16,5.16,0,0,1,.26-1.6,4.22,4.22,0,0,1,.7-1.29,3.36,3.36,0,0,1,1.08-.84,3.23,3.23,0,0,1,1.4-.31,3.35,3.35,0,0,1,1.13.18,2,2,0,0,1,.85.53,2.26,2.26,0,0,1,.54.95,4.52,4.52,0,0,1,.19,1.42v5.53h-1.45V225a2.41,2.41,0,0,0-.2-1.06,1.21,1.21,0,0,0-.57-.59,2.09,2.09,0,0,0-.92-.19,2.11,2.11,0,0,0-1,.23,2.29,2.29,0,0,0-.76.63,3.06,3.06,0,0,0-.49.91A3.22,3.22,0,0,0,450,226Zm12.67,2.3a1.27,1.27,0,0,0-.14-.58,1.21,1.21,0,0,0-.56-.49,4.51,4.51,0,0,0-1.25-.39,11.52,11.52,0,0,1-1.27-.35,4.31,4.31,0,0,1-1-.49,2.14,2.14,0,0,1-.6-.68,1.92,1.92,0,0,1-.21-.92,2.06,2.06,0,0,1,.22-.94,2.5,2.5,0,0,1,.63-.79,3,3,0,0,1,1-.54,4.06,4.06,0,0,1,1.29-.2,3.78,3.78,0,0,1,1.73.36,2.7,2.7,0,0,1,1.11,1,2.4,2.4,0,0,1,.38,1.32h-1.45a1.21,1.21,0,0,0-.21-.68,1.48,1.48,0,0,0-.6-.56,2,2,0,0,0-1-.22,2.14,2.14,0,0,0-1,.19,1.3,1.3,0,0,0-.54.46,1.18,1.18,0,0,0-.08,1,.84.84,0,0,0,.3.33,2,2,0,0,0,.59.28,8.55,8.55,0,0,0,1,.27,8.16,8.16,0,0,1,1.71.56,2.58,2.58,0,0,1,1,.81,2,2,0,0,1,.32,1.15,2.18,2.18,0,0,1-.23,1,2.29,2.29,0,0,1-.66.8,3.37,3.37,0,0,1-1,.51,4.55,4.55,0,0,1-1.33.18,4,4,0,0,1-1.89-.4,2.82,2.82,0,0,1-1.17-1,2.44,2.44,0,0,1-.4-1.34h1.45a1.53,1.53,0,0,0,.34.95,1.79,1.79,0,0,0,.77.49,3.15,3.15,0,0,0,1.89,0,1.46,1.46,0,0,0,.62-.43A1,1,0,0,0,462.62,228.27Z"/></g><g id="圖層_13" data-name="圖層 13"><path class="cls-9" d="M90.84,81c33.29,32,41.54,42.63,42,43"/><path class="cls-9" d="M270.17,89.58c-41.71,35.65-55.5,44.48-56,45"/><path class="cls-9" d="M332,92.05c29.56,28.06,36.87,37.34,37.28,37.66"/></g><g id="圖層_1" data-name="圖層 1"><path class="cls-8" d="M248.34,131.78h1.5a4.82,4.82,0,0,1-.61,1.93,3.62,3.62,0,0,1-1.42,1.35,4.75,4.75,0,0,1-2.28.5,4.33,4.33,0,0,1-1.82-.38,4,4,0,0,1-1.4-1.06,5.11,5.11,0,0,1-.91-1.66,7.45,7.45,0,0,1-.31-2.18v-1.13a7.22,7.22,0,0,1,.31-2.16,5,5,0,0,1,.92-1.68,4.11,4.11,0,0,1,1.44-1.07,4.67,4.67,0,0,1,1.9-.37,4.53,4.53,0,0,1,2.18.48,3.47,3.47,0,0,1,1.39,1.35,4.9,4.9,0,0,1,.61,2h-1.5a4.27,4.27,0,0,0-.4-1.36,2,2,0,0,0-.85-.89,2.83,2.83,0,0,0-1.43-.32,3,3,0,0,0-1.33.29,2.8,2.8,0,0,0-1,.82,3.76,3.76,0,0,0-.58,1.28,6.41,6.41,0,0,0-.2,1.64v1.15a7.13,7.13,0,0,0,.17,1.57,4.18,4.18,0,0,0,.54,1.29,2.76,2.76,0,0,0,.92.88,2.59,2.59,0,0,0,1.31.31,3.3,3.3,0,0,0,1.53-.3,2,2,0,0,0,.86-.88A4.33,4.33,0,0,0,248.34,131.78Zm3-.51v-.18a5.18,5.18,0,0,1,.26-1.7,4,4,0,0,1,.77-1.36,3.2,3.2,0,0,1,1.21-.91,4,4,0,0,1,3.19,0A3.24,3.24,0,0,1,258,128a4,4,0,0,1,.78,1.36,5.46,5.46,0,0,1,.26,1.7v.18a5.39,5.39,0,0,1-.26,1.69,4.11,4.11,0,0,1-.78,1.37,3.51,3.51,0,0,1-1.21.91,4.14,4.14,0,0,1-3.19,0,3.55,3.55,0,0,1-1.22-.91,4.09,4.09,0,0,1-.77-1.37A5.12,5.12,0,0,1,251.3,131.27Zm1.44-.18v.18a4.56,4.56,0,0,0,.15,1.19,3.43,3.43,0,0,0,.44,1,2.47,2.47,0,0,0,.76.68,2.24,2.24,0,0,0,1.06.24,2.19,2.19,0,0,0,1-.24,2.33,2.33,0,0,0,.75-.68,3.43,3.43,0,0,0,.44-1,4.17,4.17,0,0,0,.16-1.19v-.18a4.1,4.1,0,0,0-.16-1.18,3,3,0,0,0-.45-1,2.15,2.15,0,0,0-.75-.69,2.09,2.09,0,0,0-1.05-.25,2.14,2.14,0,0,0-1,.25,2.34,2.34,0,0,0-.75.69,3.2,3.2,0,0,0-.44,1A4.49,4.49,0,0,0,252.74,131.09Zm9.5-2.46v6.77h-1.45V127h1.37Zm-.3,2.22-.67,0a5.78,5.78,0,0,1,.23-1.6,3.57,3.57,0,0,1,.65-1.29,2.68,2.68,0,0,1,1.07-.84,3.29,3.29,0,0,1,1.48-.31,3.52,3.52,0,0,1,1.1.17,2.18,2.18,0,0,1,.86.53,2.25,2.25,0,0,1,.57.92,3.89,3.89,0,0,1,.21,1.36v5.63H266v-5.56a2,2,0,0,0-.23-1.06,1.25,1.25,0,0,0-.62-.58,2.18,2.18,0,0,0-.95-.19,2.26,2.26,0,0,0-1.07.23,1.8,1.8,0,0,0-.69.62,2.92,2.92,0,0,0-.38.92A5.17,5.17,0,0,0,261.94,130.85Zm5.48-.79-1,.29a4.22,4.22,0,0,1,.23-1.33,3.56,3.56,0,0,1,.65-1.14,2.86,2.86,0,0,1,1.05-.79,3.27,3.27,0,0,1,1.43-.3,3.65,3.65,0,0,1,1.2.18,2.09,2.09,0,0,1,.89.56,2.31,2.31,0,0,1,.56.94,4.65,4.65,0,0,1,.19,1.38v5.55h-1.46v-5.57a2.23,2.23,0,0,0-.22-1.1,1.23,1.23,0,0,0-.63-.56,2.45,2.45,0,0,0-.95-.16,2,2,0,0,0-.84.16,1.6,1.6,0,0,0-.62.46,1.69,1.69,0,0,0-.38.65A2.2,2.2,0,0,0,267.42,130.06Zm8.85-1.43v6.77h-1.45V127h1.37Zm-.29,2.22-.68,0a5.78,5.78,0,0,1,.23-1.6,3.73,3.73,0,0,1,.65-1.29,2.68,2.68,0,0,1,1.07-.84,3.32,3.32,0,0,1,1.48-.31,3.52,3.52,0,0,1,1.1.17,2.18,2.18,0,0,1,.86.53,2.25,2.25,0,0,1,.57.92,3.89,3.89,0,0,1,.21,1.36v5.63H280v-5.56a2.14,2.14,0,0,0-.22-1.06,1.31,1.31,0,0,0-.63-.58,2.18,2.18,0,0,0-.95-.19,2.26,2.26,0,0,0-1.07.23,1.8,1.8,0,0,0-.69.62,2.92,2.92,0,0,0-.38.92A5.19,5.19,0,0,0,276,130.85Zm5.47-.79-1,.29a4.22,4.22,0,0,1,.23-1.33,3.56,3.56,0,0,1,.65-1.14,2.94,2.94,0,0,1,1.05-.79,3.3,3.3,0,0,1,1.43-.3,3.71,3.71,0,0,1,1.21.18,2.22,2.22,0,0,1,.89.56,2.3,2.3,0,0,1,.55.94,4.34,4.34,0,0,1,.19,1.38v5.55h-1.45v-5.57a2.22,2.22,0,0,0-.23-1.1,1.23,1.23,0,0,0-.63-.56,2.45,2.45,0,0,0-.95-.16,2,2,0,0,0-.84.16,1.68,1.68,0,0,0-.62.46,1.83,1.83,0,0,0-.38.65A2.2,2.2,0,0,0,281.45,130.06ZM294,133.45V127h1.45v8.45h-1.38Zm.27-1.78.6,0a6.42,6.42,0,0,1-.18,1.56,3.28,3.28,0,0,1-.56,1.24,2.67,2.67,0,0,1-1,.82,3.74,3.74,0,0,1-1.54.29,3.39,3.39,0,0,1-1.13-.18,2.25,2.25,0,0,1-.88-.56,2.62,2.62,0,0,1-.57-1,4.79,4.79,0,0,1-.2-1.45V127h1.45v5.47a3.11,3.11,0,0,0,.12.94,1.56,1.56,0,0,0,.36.59,1.16,1.16,0,0,0,.5.29,1.84,1.84,0,0,0,.57.09,2.71,2.71,0,0,0,1.47-.35,2.08,2.08,0,0,0,.77-1A3.68,3.68,0,0,0,294.31,131.67Zm4.83-2.92v6.65h-1.45V127h1.37Zm-.34,2.1-.61,0a5.11,5.11,0,0,1,.26-1.6,4,4,0,0,1,.7-1.29,3.19,3.19,0,0,1,2.48-1.15,3.62,3.62,0,0,1,1.13.17,2.15,2.15,0,0,1,.85.53,2.36,2.36,0,0,1,.54,1,4.41,4.41,0,0,1,.19,1.41v5.54h-1.45v-5.55a2.46,2.46,0,0,0-.2-1.07,1.19,1.19,0,0,0-.57-.58,2,2,0,0,0-.92-.19,2.11,2.11,0,0,0-1,.23,2.39,2.39,0,0,0-.76.62,3.22,3.22,0,0,0-.66,2Zm9.31-3.9v8.45h-1.46V127Zm-1.56-2.24a.88.88,0,0,1,.21-.6,1,1,0,0,1,1.27,0,.85.85,0,0,1,.23.6.81.81,0,0,1-.23.57,1,1,0,0,1-1.27,0A.84.84,0,0,1,306.55,124.71Zm7.26,9.66a2.17,2.17,0,0,0,.95-.21,1.89,1.89,0,0,0,.72-.58,1.53,1.53,0,0,0,.32-.85h1.38a2.66,2.66,0,0,1-.51,1.4,3.61,3.61,0,0,1-1.21,1,3.52,3.52,0,0,1-1.65.39,3.9,3.9,0,0,1-1.66-.34,3.22,3.22,0,0,1-1.17-.92,4.18,4.18,0,0,1-.7-1.34,5.77,5.77,0,0,1-.23-1.62V131a5.64,5.64,0,0,1,.23-1.61,4.13,4.13,0,0,1,.7-1.35,3.22,3.22,0,0,1,1.17-.92,3.76,3.76,0,0,1,1.66-.34,3.61,3.61,0,0,1,1.74.41,3,3,0,0,1,1.16,1.09,3.17,3.17,0,0,1,.47,1.56H315.8a2,2,0,0,0-.29-.94,2,2,0,0,0-1.7-.93,2.29,2.29,0,0,0-1.12.26,2.1,2.1,0,0,0-.71.71,3.31,3.31,0,0,0-.37,1,5,5,0,0,0-.11,1.09v.33a5,5,0,0,0,.11,1.09,2.89,2.89,0,0,0,.37,1,2,2,0,0,0,.71.7A2.24,2.24,0,0,0,313.81,134.37Zm10-.41V129.6a1.69,1.69,0,0,0-.21-.86,1.28,1.28,0,0,0-.59-.58,2.06,2.06,0,0,0-1-.2,2.35,2.35,0,0,0-1,.18,1.74,1.74,0,0,0-.65.49,1.11,1.11,0,0,0-.22.66h-1.45a1.9,1.9,0,0,1,.24-.9,2.63,2.63,0,0,1,.67-.8,3.29,3.29,0,0,1,1.06-.58,4.47,4.47,0,0,1,3,.09,2.51,2.51,0,0,1,1.11,1,2.84,2.84,0,0,1,.4,1.57v3.94a7.38,7.38,0,0,0,.07.9,4,4,0,0,0,.23.82v.12H324a2.85,2.85,0,0,1-.17-.66A5.65,5.65,0,0,1,323.79,134Zm.25-3.68v1h-1.46a5.22,5.22,0,0,0-1.1.1,2.74,2.74,0,0,0-.81.29,1.38,1.38,0,0,0-.5.49,1.27,1.27,0,0,0-.17.68,1.49,1.49,0,0,0,.18.73,1.29,1.29,0,0,0,.54.52,1.86,1.86,0,0,0,.89.19,2.37,2.37,0,0,0,1.18-.28,2.58,2.58,0,0,0,.8-.69,1.53,1.53,0,0,0,.33-.79l.62.7a2.26,2.26,0,0,1-.3.73,3.55,3.55,0,0,1-1.6,1.36,3.08,3.08,0,0,1-1.24.24,3.32,3.32,0,0,1-1.51-.34,2.57,2.57,0,0,1-1-.9,2.4,2.4,0,0,1-.35-1.27,2.59,2.59,0,0,1,.27-1.2,2.32,2.32,0,0,1,.76-.86,3.42,3.42,0,0,1,1.21-.53,6.33,6.33,0,0,1,1.57-.18Zm7-3.33v1.11h-4.57V127Zm-3-2.06h1.45v8.42a1.29,1.29,0,0,0,.13.65.61.61,0,0,0,.34.28,1.39,1.39,0,0,0,.46.07l.37,0,.31-.06v1.18a2.58,2.58,0,0,1-.45.1,3.1,3.1,0,0,1-.66.06,2.27,2.27,0,0,1-1-.21,1.57,1.57,0,0,1-.71-.71,3,3,0,0,1-.26-1.34Zm6.29,2.06v8.45h-1.45V127Zm-1.56-2.24a.88.88,0,0,1,.21-.6.83.83,0,0,1,.64-.24.79.79,0,0,1,.63.24.85.85,0,0,1,.23.6.81.81,0,0,1-.23.57.79.79,0,0,1-.63.24.78.78,0,0,1-.85-.81Zm3.5,6.56v-.18a5.46,5.46,0,0,1,.26-1.7,4.12,4.12,0,0,1,.77-1.36,3.28,3.28,0,0,1,1.21-.91,3.74,3.74,0,0,1,1.59-.33,3.8,3.8,0,0,1,1.61.33,3.28,3.28,0,0,1,1.21.91,4,4,0,0,1,.78,1.36,5.18,5.18,0,0,1,.26,1.7v.18a5.12,5.12,0,0,1-.26,1.69,4.11,4.11,0,0,1-.78,1.37,3.42,3.42,0,0,1-1.21.91,3.86,3.86,0,0,1-1.59.32,3.91,3.91,0,0,1-1.6-.32,3.55,3.55,0,0,1-1.22-.91,4.27,4.27,0,0,1-.77-1.37A5.39,5.39,0,0,1,336.25,131.27Zm1.44-.18v.18a4.56,4.56,0,0,0,.15,1.19,3.2,3.2,0,0,0,.45,1,2.26,2.26,0,0,0,.76.68,2.2,2.2,0,0,0,1.05.24,2.16,2.16,0,0,0,1-.24,2.33,2.33,0,0,0,.75-.68,3,3,0,0,0,.44-1,4.17,4.17,0,0,0,.16-1.19v-.18a4.1,4.1,0,0,0-.16-1.18,2.81,2.81,0,0,0-.45-1,2.15,2.15,0,0,0-.75-.69,2.31,2.31,0,0,0-2.09,0,2.15,2.15,0,0,0-.75.69,3,3,0,0,0-.45,1A4.49,4.49,0,0,0,337.69,131.09Zm9.51-2.34v6.65h-1.44V127h1.36Zm-.34,2.1-.6,0a5.11,5.11,0,0,1,.25-1.6,3.83,3.83,0,0,1,.71-1.29,2.93,2.93,0,0,1,1.08-.84,3.05,3.05,0,0,1,1.39-.31,3.58,3.58,0,0,1,1.13.17,2.08,2.08,0,0,1,.85.53,2.5,2.5,0,0,1,.55,1,4.74,4.74,0,0,1,.18,1.41v5.54H351v-5.55a2.47,2.47,0,0,0-.19-1.07,1.19,1.19,0,0,0-.57-.58,2,2,0,0,0-.93-.19,2.14,2.14,0,0,0-1,.23,2.5,2.5,0,0,0-.76.62,3.22,3.22,0,0,0-.66,2Z"/></g></svg>