<svg id="圖層_1" data-name="圖層 1" xmlns="http://www.w3.org/2000/svg" viewBox="0 0 47 729.52"><defs><style>.cls-1{fill:#1a1a1a;fill-rule:evenodd;}</style></defs><path class="cls-1" d="M4.05,48.42c.65.85,1.18,57,.65,68.68,0,.82-.07,14.68-.07,30.79,0,24.58.25,29.46,1.49,30.26s1.18.95.1.95-1.1.34-.29,1.34c.67.82.78,2.47.3,4.25-.44,1.61-.82,7.26-.86,12.57s-.44,9.42-.9,9.13-.61,2.34-.32,5.84C5.41,228,5.53,285.46,4.3,287.4c-.34.55-.14.71.46.34a1.24,1.24,0,0,1,1.71.37c.34.56.14,1-.44,1A1.06,1.06,0,0,0,5,290.17c0,.58.44.78,1,.45s1-.16,1,.39a2.19,2.19,0,0,1-1,1.61,2.31,2.31,0,0,0-1,1.8c0,.71.4.59,1-.3,1.13-1.71,1.28-1.05,1,4.51-.12,2.2-.63,4.42-1.14,4.94-1.4,1.41-1.56,35.53-.16,35.55.82,0,.82.36,0,1.34-.62.73-.92,1.53-.68,1.78s.46,5.27.49,11.15c0,6.75.42,10.48,1,10.1s.47.35-.16,1.51-.81,2.12-.37,2.12c.85,0,.42,11.55-.52,14-.31.82-.52,11.84-.46,24.49s0,33.95-.12,47.32.07,23.27.44,22,.68.88.7,5,.42,7.07,1,6.74.6.59,0,2.43c-.49,1.64-.51,3.23,0,3.53s.69,2.1.49,4,0,3.48.35,3.49a7.54,7.54,0,0,1,2.64,1.53c1.6,1.27,1.63,1.41.18.89-1.17-.42-1.75-.12-1.76.9a2.11,2.11,0,0,1-1.27,1.92c-2.68.87-3.79,127.67-1.29,147.49.4,3.17.76,9.67.81,14.45a73.13,73.13,0,0,0,.83,11.5,22.79,22.79,0,0,1,.53,6.08c-.11,1.79.18,3.25.66,3.26s.85.53.84,1.18-.3.86-.66.49-1.28.21-2,1.27c-1.1,1.53-1.3,5.37-1,18.24.22,9,.73,18.91,1.14,22.1.62,4.81.47,5.94-.86,6.67s-1.4,1,.18,1.58c1.21.48,1.46,1.06.78,1.86a2.18,2.18,0,0,0-.06,2.63c.5.81.93,1,.95.48s.44-.36.92.42a4.63,4.63,0,0,1,0,3.72c-1.07,2.72,0,3.66,3.26,2.87,2.25-.54,3.77-4.43,1.74-4.45-.51,0-.93-.72-.92-1.57s-.44-1.29-1-.95-1-.1-1-1c0-1.83.49-1.9,3.07-.49,1.63.89,1.93.72,1.95-1.1s.22-2,1.7-.77c1,.79,1.37.88,1,.2a1.31,1.31,0,0,1,.32-1.8c.57-.34,1-.06,1,.63s.86.33,2-.85a11.52,11.52,0,0,1,4-2.71c1.42-.43,1.91-1.27,1.64-2.81a9.46,9.46,0,0,0-.54-2.19,11.83,11.83,0,0,1-.58-2.49c-.41-2.4-.38-2.42,1.05-.49s1.48,1.94,1.53-.44.1-2.39,1.61-.49c.86,1.08,1.29,1.41.95.73s.07-3.18.91-5.55c1.85-5.28,1.73-26.92-.15-27.57-.75-.26-.94.31-.53,1.64.34,1.13.15,2.33-.42,2.68s-1-1.51-1-5.49c0-3.82-.31-5.89-.94-5.51-1.75,1.06-1.11-14.4.67-16.14,1.53-1.5,1.14-3.84-.48-2.86-.47.29-1.16-.44-1.52-1.62-.63-2,1.13-4.28,2.62-3.33.36.22.46-1.74.24-4.35a18.39,18.39,0,0,1,1.17-8.43c.87-2,1.2-3.93.72-4.23s-.81-1.9-.75-3.54-.2-3.32-.58-3.71-.67,1.75-.63,4.76a72.22,72.22,0,0,1-.69,10.22c-.62,4-1,4.56-2.17,3.55a3.39,3.39,0,0,1-.88-3.22,4.48,4.48,0,0,0-.65-3.52c-.8-1-.82-1.28,0-.81s1.2-2.88,1.36-12.48c.17-10.24-.05-12.91-1-12a7.22,7.22,0,0,0-1.44,3.91c-.13,1.51-.27,3.07-.32,3.48a.93.93,0,0,1-.94.75c-.47,0-.65-3.72-.41-8.26s.16-8.92-.18-9.75c-1.08-2.56-.71-6.53.57-6.23a.83.83,0,0,0,1.06-1c-.36-3,.23-11.05.77-10.5.79.81.49,18.33-.36,20.91-.49,1.48-.3,1.93.68,1.62s1.3-2.06,1.14-6.22c-.14-3.4.27-6.36,1-7.19.91-1.08.92-1.71.06-2.59a5.78,5.78,0,0,1-1-3.72l.13-2.55.78,2.51c1,3.23,1.08,2.7,1.7-11,.62-13.39.78-14,3.49-13.47,2,.4,2,0,2.16-10.47.06-6,.46-11.09.88-11.35s.73-3.76.67-7.8S37.57,536,37.52,530s-.57-11.91-1.15-13c-1.36-2.61-1.75-6.52-.64-6.51s1.74-4,.89-7.38c-.4-1.6-.44-3.36-.09-3.92,1-1.63,1.23-6.68.27-6.69-.49,0-.88-.91-.87-2s-.43-2-1-2-1-1.16-1-2.57.4-2.32.85-2,.84,0,.86-.68a30.5,30.5,0,0,1,.77-4.38c.67-2.85.54-3.11-1.32-2.64s-2.09,1.33-2.27,8.15-.28,7.15-.88,3.15a21.38,21.38,0,0,1-.15-6.41c.39-1.46.18-1.72-.89-1.09s-1.18.54,0-.92,1.27-1.89,0-2.79-1.13-.94.22-.49c2.54.83,2.9-2.22,2.37-19.72-.36-12-.2-15.74.67-15.19.64.4,1.16.3,1.17-.22s-.66-1.22-1.49-1.54a2.27,2.27,0,0,1-1.46-1.87c0-.91.33-.85,1.07.23.93,1.34,1,1.34.63,0a2,2,0,0,0-2-1.39c-1,.07-1.35-.43-.93-1.51.56-1.46.43-1.47-1.32-.14s-1.88,1.41-.2-1.18c1.15-1.75,1.36-2.79.63-3-1.11-.38-1.11-6.06,0-18.53C31,405,32.82,403,32.76,409c0,2.73.31,3.48,1.41,3.07A1.37,1.37,0,0,1,36,413.23c.22.94.2-.55,0-3.3s-.46-5.55-.46-6.21-.39-1-.85-.7-.77-1.21-.7-3.3c.12-3.22.24-3.43.81-1.31.45,1.7.91,2.1,1.45,1.26a2.41,2.41,0,0,0,.17-2.24c-.34-.55,0-1,.7-1,1,0,1-.18,0-.87s-1-1.06-.17-1.59a2,2,0,0,0,.57-2.36,38.15,38.15,0,0,1-1-6.57,26.68,26.68,0,0,0-.93-5.76c-.28-.46.19-.56,1-.22s1.55.05,1.56-.91a2.29,2.29,0,0,0-1.23-2c-1-.42-1-.53,0-.58a1.54,1.54,0,0,0,1.26-1.63c0-1-.45-1.29-1.24-.82-1,.57-1,.39,0-.82,1.3-1.56,1.64-11.36.48-13.31-.33-.55-.58-7.81-.56-16.13s-.31-15.7-.74-16.41-.38-1,.27-.63c1.46.92,1.78-16.8.35-19.52-.59-1.14-.65-1.8-.14-1.48s1-1.95,1-5.62l.07-6.21-1.29,4c-1.44,4.46-1.46,4.45-2-.8-.22-2.34,0-3.55.63-3.17s.9-.79.78-3c-.11-2-.51-3.58-.89-3.59s-.51-10.58-.31-23.5.74-23.5,1.19-23.49.54.42.22.93a1.26,1.26,0,0,0,.58,1.66c.87.55,1-.51.56-4.06a75.75,75.75,0,0,1-.58-7.72c0-2.07-.33-2.71-1.22-2.18s-.9.3.07-.88a2.79,2.79,0,0,0,.34-3.54c-.61-1.16-.64-2.28-.08-2.82,1.19-1.17-1.24-8.71-2.47-7.68-.5.41-.27-.06.5-1,1.2-1.53,1.2-1.75,0-1.5s-1.34-1.16-1.18-6.44c.12-3.71-.2-7-.7-7.32s-.94.46-1,1.73c0,1.85-.23,2-1,.8s-1-.84-1.14,1.48c-.16,2.55-.25,2.65-.61.63a4.43,4.43,0,0,1,.67-3.44c1.38-1.35,1.46-3,.11-2.18-.58.35-1-.57-1-2.15,0-2.55.13-2.61,1.36-.89.92,1.29,1.55,1.5,2.05.71.4-.63.2-1.15-.45-1.15s-.95-.85-.63-2,.13-2.25-.36-2.56-.95.24-1,1.24c-.08,1.28-.34,1.07-.89-.7s-.82-.58-.95,4.4c-.18,7.32-.76,8.27-1.54,2.53-.26-1.9-.84-5.29-1.3-7.52a29.37,29.37,0,0,1-.64-6.26c.11-1.33-.39-2.2-1.26-2.21s-1.3-.78-.95-2.51.05-2.5-.79-2.51-1.51,1-1.78,2.23-.49.22-.49-2.25-.25-11.71-.54-20.51-.27-15.78,0-15.5c.75.7,1.7,10.78,2,21.36.14,4.86.51,9.1.83,9.42s.59-.39.6-1.58.54-2.16,1.18-2.15.38-.86-.64-2-1.33-2-.77-2,.81-1.23.57-2.74c-.44-2.67-.41-2.7,1.12-.74s1.55,1.67,1.26-3.74c-.18-3.16.09-5.75.58-5.74s.92,1,.95,2.26.29,1.69.57,1c.94-2.26,2.22-1.27,2.51,1.95.35,4,2.76,5.14,2.8,1.37a6.47,6.47,0,0,1,1.4-4c.93-.92,1.26-3,1-6.51-.2-2.83,0-4.9.51-4.6s.6-1.4.25-3.87-.27-5,.17-5.68.42-1.5-.05-1.79c-.65-.42-1.51-8.51-1.83-17.36,0-.44-.59-.5-1.29-.11-1,.54-1,.41,0-.61s.88-1.58-.47-2.62c-1.16-.9-1.28-1.33-.38-1.34s1.1-.72.66-2.15-.29-1.91.45-1.44,1.1.21,1.11-.39a2.2,2.2,0,0,0-1.48-1.68c-.82-.32-1.2-1-.86-1.58s.84-.66,1.25,0,.52-4.68.4-11.64,0-12.43.24-12.15.73,5.45,1,11.51c.56,10.62,2.24,16.78,2.59,9.47.31-6.61.16-18.5-.34-25.95-.27-4.13-.59-8.86-.69-10.51a9.7,9.7,0,0,0-1.6-4.7c-1.54-1.87-2.05-6.7-.79-7.46.43-.26.8-1.63.82-3,0-2.1.28-2.35,1.43-1.37s1.32.83.89-.88a5.29,5.29,0,0,0-1.44-2.66c-.54-.34-.43-1.17.26-2,1.61-1.9.47-1.79-1.5.14-1.45,1.42-1.59,1.18-1.55-2.57,0-2.38-.37-3.89-.92-3.55s-.73-.9-.37-3.2a40.57,40.57,0,0,0,.53-5.27c-.35-8.43.34-17.55,1.36-18.17s.72-1.1-.58-2.07-1.88-3-2.1-6.81c-.16-3-.09-4.68.17-3.72.54,2,2.28,2.39,2.42.53.06-.69.22-2.26.37-3.5s-.13-2.25-.62-2.26-.61-.45-.26-1-.08-1-.93-1-1.57.39-1.57.89-.91.66-2,.37c-1.83-.5-2.52.45-2.15,2.93a.49.49,0,0,1-.64.59c-1.65-.37-4.11,1.36-3.66,2.58a1.53,1.53,0,0,1-1.07,1.87c-.85.31-1.44.25-1.3-.14S18-6.5,17.48-6.78s-1.15.9-1.33,2.63c-.26,2.38-.75,3-2,2.68s-2.2.65-3.43,3.32L9,5.63l-.09-3.5-.1-3.5-1,2.74C7.16,2.88,6.36,4.11,6,4.1S5,6.91,4.83,10.34C4.46,16.72,3.81,48.11,4.05,48.42ZM4.79,374.3a2,2,0,0,0-.06-1.92c-.33-.33-.57.25-.54,1.31S4.46,375.09,4.79,374.3Zm2-201.45a5.72,5.72,0,0,1,0,3c-.27,1-.49.42-.49-1.23S6.54,172.17,6.81,172.85Zm.67-58.51a80,80,0,0,1-.1,10c-.23,2.9-.37.78-.32-4.72S7.3,111.74,7.48,114.34Zm-.3,389.8c.22,0,.66-.67,1-1.49s.15-1.5-.38-1.5-1,.66-1,1.49S7,504.14,7.18,504.14Zm1,2.1c.85.87,1.15,8.92.33,8.91-.47,0-.83-2.1-.8-4.67S8,506,8.2,506.24Zm1.94-20.07c.46,0,.86,1,.89,2.26a31,31,0,0,0,.37,4c.17,1-.09,1.5-.59,1.18s-.91-.09-.92.49a1,1,0,0,0,1,1.07c1.57,0,1.15,1.73-.57,2.37C9,498,8.79,497.2,9,492.15,9.18,488.86,9.68,486.17,10.14,486.17Zm1.67,32.62c.45.29.82,1.62.8,3s-.4,2.43-.86,2.43-.82-1.34-.8-3S11.35,518.5,11.81,518.79Zm1.85-12c.26.26,0,1-.65,1.57a3,3,0,0,0-.62,2.73c.41,1.33.32,1.37-.49.21C10.94,509.89,12.58,505.67,13.66,506.77Zm.87-332.57c.74,0,1.19,6,.53,7-.37.58-.72-.76-.79-3S14.33,174.2,14.53,174.2Zm1.17-44.43c1.08.69,1.15,3.15.1,3.78-.41.26-.81-.62-.87-1.94S15.21,129.47,15.7,129.77Zm.67-74.06c.94,3.44,1.45,31.52.57,31.51-.31,0-.65-2.58-.75-5.74a51.46,51.46,0,0,0-.36-5.92c-.1-.11-.21-5.3-.23-11.53C15.56,56.35,15.81,53.67,16.37,55.71Zm-.12,167.51c.22,0,.39.68.38,1.5s-.45,1.5-1,1.49-.7-.68-.37-1.5S16,223.22,16.25,223.22Zm-.15-83.74a2,2,0,0,1,.06,1.92c-.33.8-.57.56-.6-.61S15.77,139.15,16.1,139.48Zm0-4a2,2,0,0,1,.06,1.92c-.33.8-.56.56-.6-.61S15.81,135.15,16.14,135.48Zm.05,185.4c.85.33,1.33.82,1.06,1.08s-1,.17-1.54-.2C14.12,320.76,14.44,320.18,16.19,320.88ZM17,240.35c.25-.25.44,1.4.41,3.66s.41,4.39.95,4.73a2.32,2.32,0,0,1,1,1.82c0,.72-.41.59-1-.32-.71-1.12-1-.49-1.16,2.49l-.21,4-.57-4.51C15.86,247.67,16.17,241.17,17,240.35ZM16.18,236a3.83,3.83,0,0,1,0,2.5c-.28.68-.51.12-.49-1.26S15.91,235.28,16.18,236ZM14.45,537.72a3.48,3.48,0,0,1,.87,2.81c-.11,2-.17,2-.89-.31-.43-1.38-.82-2.65-.88-2.82S13.9,537.37,14.45,537.72Zm.07-6.5a1,1,0,1,1-1,1A1,1,0,0,1,14.52,531.22ZM18,183.16c1.13,1.83,1,12.22-.18,11.49-.47-.3-.83-3.33-.78-6.73C17.07,183.85,17.4,182.22,18,183.16Zm1-125.6c1,1,1.05,20.22,0,21.77-.55.86-.86-3.17-.79-10.52C18.28,62.26,18.62,57.2,19,57.56ZM16.73,538.22l.48-4.48-.16,4.93c-.11,3.46-.6,5-1.66,5.3s-1.14.14-.32-.44C15.73,543.08,16.47,540.69,16.73,538.22Zm.42,10.5c.3.31,0,1.11-.7,1.78-1,1-1.12.86-.56-.56C16.28,549,16.84,548.41,17.15,548.72ZM17,544.85c1-.36,1.43-.14,1.18.59-.51,1.49-2.79,2.29-2.78,1C15.37,545.88,16.09,545.17,17,544.85Zm2-287.36a11,11,0,0,1,0,4c-.25,1.24-.45.45-.44-1.75S18.74,256.53,19,257.49Zm2.17-84.22c.55,0,1-.67,1-1.49s-.44-1.51-1-1.51-1,.66-1,1.49S20.6,173.26,21.15,173.27ZM17.84,569a17.87,17.87,0,0,1,0,5c-.24,1.52-.43.51-.41-2.24S17.61,567.76,17.84,569Zm1.23-32.46a2,2,0,0,1,.06,1.92c-.33.8-.57.56-.6-.61S18.74,536.2,19.07,536.53Zm3.19-232.25c.24,0,.72.46,1,1s.13,1-.45,1a1,1,0,0,1-1.05-1C21.82,304.73,22,304.28,22.26,304.28Zm1.53-126.8a2,2,0,0,0-.06-1.92c-.33-.33-.57.26-.54,1.31S23.46,178.27,23.79,177.48Zm0-4a2,2,0,0,0-.06-1.92c-.33-.33-.57.26-.54,1.31S23.5,174.27,23.83,173.48ZM23.76,315.9c.32-.3.56,2.25.55,5.68,0,3.9-.27,5.29-.68,3.72C22.87,322.36,23,316.7,23.76,315.9ZM27.28,1.59c.34-.33.55,3.41.46,8.32-.1,5.57-.46,8.16-.95,6.91C25.92,14.59,26.31,2.55,27.28,1.59Zm-3.16,333a2,2,0,0,1,.06,1.92c-.33.8-.56.56-.6-.61S23.79,334.24,24.12,334.57Zm3-315.25c1.06,0,1.48,1.93.55,2.49-.56.34-1-.08-1-.94S26.91,19.32,27.15,19.32ZM23.33,598.67a5,5,0,0,1,1.47,2.78c0,.7-.64.4-1.46-.7C21.44,598.18,21.44,596.73,23.33,598.67ZM27,183.33c.53,0,.71-.67.41-1.5s-.74-1.51-1-1.51-.4.67-.41,1.5S26.48,183.32,27,183.33ZM23.77,604.81c.78-1.76.88-1.67.92.76,0,1.52-.41,2.75-1,2.74C22.56,608.3,22.57,607.53,23.77,604.81Zm2.4-270.75a5.72,5.72,0,0,1,0,3c-.26,1-.48.41-.48-1.24S25.91,333.38,26.17,334.06Zm.22-15a31.38,31.38,0,0,1-.06,6.5c-.24,1.78-.41.32-.37-3.26S26.19,317.29,26.39,319.08Zm.51-61.48a2,2,0,0,1,.06,1.92c-.33.79-.56.55-.6-.61S26.57,257.26,26.9,257.6Zm1.46-8.26c1.05,1.62,1.41-1.5,1.12-9.49-.08-2.2.19-3.65.61-3.23s.66,3.93.54,7.8c-.16,5.25.09,6.88,1,6.42.68-.33.2.29-1.06,1.38-1.54,1.32-1.92,2.21-1.17,2.69a1.41,1.41,0,0,0,1.91-.52c.44-.69.75.69.71,3.12s-.26,3.54-.5,2.52a9,9,0,0,0-2.09-3.54,9.41,9.41,0,0,1-1.86-5.17C27.44,248.73,27.63,248.22,28.36,249.34ZM29.74,84.6a8.1,8.1,0,0,1,0,3.5c-.26,1-.45.17-.43-1.76S29.5,83.63,29.74,84.6Zm0-6a2,2,0,0,1,.05,1.92c-.32.79-.56.55-.59-.61S29.39,78.28,29.72,78.62ZM25.86,635.86l1.43-2.69-.14,3.73c-.08,2.06-.31,3.22-.52,2.58a.87.87,0,0,0-1.29-.6C24.08,639.65,24.19,639,25.86,635.86Zm.86-163.25a2.06,2.06,0,0,1,.06,1.92c-.33.79-.57.55-.6-.61S26.39,472.27,26.72,472.61Zm.1-4.52a3.83,3.83,0,0,1,0,2.5c-.28.68-.5.12-.49-1.26S26.55,467.4,26.82,468.09Zm2.46-209.24a3.52,3.52,0,0,1,.87,2.82c-.11,2-.17,2-.89-.32l-.87-2.81C28.33,258.36,28.74,258.51,29.28,258.85Zm.28-27.5a1,1,0,0,1,1,1.07c0,.59-.46.78-1,.43s-1-.82-1-1.06S29,231.35,29.56,231.35Zm-.17-10.17c.27,2.39.79,3.18,1.82,2.8,2-.74,1.78.42-.34,2-1,.69-1.41,1.62-1,2.07s1.22.15,1.74-.65,1-1,1-.34a3.72,3.72,0,0,1-1.41,2.28c-1.81,1.47-2.16.47-2.17-6.3C29,220,29.16,219.22,29.39,221.18Zm0-7.08a3.83,3.83,0,0,1,0,2.5c-.28.69-.5.12-.49-1.25S29.13,213.41,29.4,214.1Zm1.27-26.61c1.39,1.17,1.72,1.18,2.12,0s.6-1.14,1.32,0c.57.91.87.14.9-2.32,0-2-.33-3.94-.81-4.24s-.74-3.82-.58-7.82a54.31,54.31,0,0,0-.4-10.27c-.77-3.33-.75-3.5-1.69,13.47-.23,4.12-.89,7.64-1.46,7.82C28.56,184.66,28.79,185.91,30.67,187.49Zm-.46-24.13A7.35,7.35,0,0,0,31.27,160c.05-2.56-.53-1.76-1.39,1.9C29.36,164,29.45,164.45,30.21,163.36Zm-.05,108a1,1,0,0,1,1,1.07c0,.58-.45.78-1,.43s-1-.82-1-1.07S29.61,271.36,30.16,271.36Zm-3,358.26a2,2,0,0,1,.06,1.92c-.32.79-.56.55-.6-.61S26.79,629.29,27.12,629.62Zm.44-4.27a1,1,0,1,0,0-2,1,1,0,0,0,0,2Zm1.57-188.26a5.72,5.72,0,0,1,0,3c-.27,1-.49.42-.49-1.23S28.86,436.41,29.13,437.09ZM32,190.88c.56-.34,1-.81,1-1s-.44-.45-1-.45a1,1,0,0,0-1,1.05C31,191,31.42,191.21,32,190.88Zm.27-55.75a14.15,14.15,0,0,1,0,4.5c-.25,1.23-.44.22-.41-2.26S32,133.89,32.24,135.13Zm.7-69a14.15,14.15,0,0,1,0,4.5c-.25,1.23-.44.22-.41-2.25S32.72,64.89,32.94,66.13ZM28.69,661c.82.33,1.21,1,.86,1.59s-.95.47-1.47-.37C26.94,660.39,27,660.32,28.69,661Zm3.55-398.12a2.16,2.16,0,0,1,1,1.57,1,1,0,0,1-1,.93c-.55,0-1-.71-1-1.57S31.69,262.54,32.24,262.88Zm.15-45.25a8.1,8.1,0,0,1,0,3.5c-.26,1-.45.17-.44-1.75S32.15,216.67,32.39,217.63Zm-1.5,246a11,11,0,0,1,0,4c-.25,1.24-.45.46-.44-1.74S30.65,462.66,30.89,463.62ZM33.26,300a10,10,0,0,1,1,5.42c-.17,1.92-.36,4.76-.42,6.3S33.38,314.3,33,314s-.8-4-.87-8.23C32,299.16,32.16,298.34,33.26,300Zm.67-104.59a1,1,0,0,0,1-.93,2.15,2.15,0,0,0-1-1.57c-.54-.35-1,.07-1,.93S33.38,195.39,33.93,195.4ZM35,54.59A2,2,0,0,0,35,52.67c-.33-.33-.57.25-.54,1.31S34.71,55.38,35,54.59Zm1-65.18c.55,0,1-.92,1-2.05s-.43-1.79-1-1.45A2.64,2.64,0,0,0,35-12C35-11.25,35.47-10.6,36-10.59ZM30,667.93c.51-.3,1.12,0,1.36.71s.83.9,1.3.46.21-1.22-.59-1.74c-1.94-1.25-3-1.22-3,.07C29.13,668,29.54,668.24,30,667.93Zm.28-44.32c.24-3,.83-5,1.36-4.68s1-.9,1-2.72.4-10.11.81-18.43c.49-10.09.38-15.74-.34-17-.8-1.42-1.11,1.91-1.25,13.43-.12,9.94-.53,15.08-1.18,14.68s-1,3-.91,9.68C29.86,624.27,30.09,626.52,30.32,623.61Zm2.14-223.95a2,2,0,0,1,.06,1.92c-.33.8-.57.56-.6-.61S32.13,399.33,32.46,399.66ZM35.34,162.5c.64,1,.89.67.92-1.33.05-3-.44-3.53-1.27-1.42A3.52,3.52,0,0,0,35.34,162.5Zm0-15.09c.71,4.8,1.74,2.5,1.11-2.49-.28-2.2-.76-3.33-1.07-2.51A13.43,13.43,0,0,0,35.37,147.41Zm.27-33.5.68,3,.62-2.89a14.39,14.39,0,0,0-.18-5.77c-.48-1.76-.43-2.66.14-2.3s.9-1.83.85-5.22c0-3.2-.29-4.69-.56-3.32A10.93,10.93,0,0,1,36,100.91C35,102.22,34.78,110.11,35.64,113.91Zm1-114.75a8.26,8.26,0,0,0,0-3.5c-.24-1-.45-.18-.47,1.75S36.35.12,36.61-.84Zm-6,685.42a2,2,0,0,0-.06-1.92c-.32-.34-.57.25-.53,1.31S30.32,685.37,30.64,684.58Zm.75-73a11,11,0,0,1,0,4c-.25,1.24-.45.46-.44-1.74S31.15,610.67,31.39,611.63Zm2.85-283.49a5.73,5.73,0,0,1,0,3c-.26,1-.48.41-.48-1.24S34,327.46,34.24,328.14Zm.06-11.46a2,2,0,0,1,.06,1.91c-.33.8-.56.56-.6-.61S34,316.34,34.3,316.68Zm2-138.51c.43,1.15.67.54.7-1.74a17.67,17.67,0,0,0-.78-5.51c-.61-1.52-.78-1.1-.69,1.74A22.67,22.67,0,0,0,36.28,178.17Zm.89-138.5a3.83,3.83,0,0,0,0-2.5c-.27-.69-.5-.13-.51,1.25S36.89,40.36,37.17,39.67ZM32,702a2.55,2.55,0,0,1,.81,2c0,.82-.38,1.26-.84,1a2.59,2.59,0,0,1-.81-2C31.12,702.16,31.5,701.72,32,702Zm2.26-268.87a5.72,5.72,0,0,0,0-3c-.27-.68-.48.12-.48,1.77S33.94,434.11,34.21,433.14Zm.16-17.54a2,2,0,0,0-.06-1.92c-.32-.33-.57.25-.53,1.31S34.05,416.39,34.37,415.6Zm-2,290.81c.82,0,1.27,2,.55,2.39-.47.28-.85-.14-.84-.94S32.2,706.41,32.35,706.41Zm.52-12.5c.54.35,1,.15,1-.43a1,1,0,0,0-1-1.07c-.55,0-1,.19-1,.43S32.32,693.57,32.87,693.91Zm1.2-119c.56-.34,1-.13,1,.45a1,1,0,0,1-1,1c-.55,0-1-.21-1-.45S33.52,575.25,34.07,574.92ZM36,362.18a32.1,32.1,0,0,1-.07,6.5c-.24,1.78-.41.32-.37-3.26S35.75,360.39,36,362.18Zm3-280.74c1.26,0,2.83-2.22,2.62-3.72-.1-.69-.24-2-.31-3-.12-1.48-.27-1.52-1-.26C38.83,77,38,81.43,38.94,81.44Zm1.23-9a1,1,0,1,0,0-2,1,1,0,0,0,0,2ZM40,55.2a8.1,8.1,0,0,0,0-3.5c-.24-1-.45-.18-.47,1.75S39.78,56.16,40,55.2Zm.54,57.26c.45,0,.93-2.13,1.07-4.74.18-3.46,0-4.34-.77-3.26C39.66,106.25,39.43,112.45,40.58,112.46Zm-.26-29.93c2.58.82,3.36.43,3.56-1.81.24-2.48.19-2.5-1.78-.75S39.73,82.34,40.32,82.53Zm-4.67,601.1a2,2,0,0,0-.06-1.92c-.32-.34-.57.25-.53,1.31S35.33,684.42,35.65,683.63Zm.05-4.44a8.1,8.1,0,0,0,0-3.5c-.24-1-.45-.18-.47,1.74S35.44,680.15,35.7,679.19ZM40.27,259c.56.35.73,0,.4-.94-.64-1.74-1.36-2.06-1.37-.62A2.12,2.12,0,0,0,40.27,259Zm1.36-127.49c.59,0,.79-.44.46-1s-.81-1-1.05-1-.45.44-.45,1A1,1,0,0,0,41.63,131.47ZM43,14.27c.36.94.73-2.3.82-7.2s-.14-8.62-.51-8.26C42.37-.32,42.11,12.11,43,14.27ZM43-5l.73,3,.15-3.19C43.93-7,43.55-8.68,43-9,41.9-9.72,41.9-9.38,43-5ZM40.13,338.72a3.83,3.83,0,0,0,0-2.5c-.27-.69-.5-.13-.52,1.24S39.85,339.4,40.13,338.72Zm.48-45.91c.48.49,1.35,9.88,1.58,17.15.13,3.87.33,9.73.44,13l.21,6,.83-5c1.22-7.37,1.36-29.37.21-34-.55-2.2-1-4.53-1.09-5.16s-.71-.93-1.46-.65-1.31,1.87-1.19,4.42A20,20,0,0,0,40.61,292.81ZM42.38,143c.63,2.77.73,2.63,1.18-1.75.39-3.86-.38-9.68-1-7.75A24.86,24.86,0,0,0,42.38,143Zm0-25.31a2,2,0,0,0-.06-1.92c-.33-.34-.57.25-.54,1.31S42.07,118.46,42.4,117.67ZM40.84,370.23a8.26,8.26,0,0,0,0-3.5c-.24-1-.46-.18-.48,1.74S40.58,371.19,40.84,370.23Zm2.07-172.74c.77,1.22,1,1.1,1-.68a3.68,3.68,0,0,0-1-2.82C41.68,193.19,41.65,195.51,42.91,197.49Zm.17-7.88c.58.93.88.16.91-2.36,0-2.06-.28-3.76-.69-3.76C42.22,183.48,42.07,188,43.08,189.61Zm.23-79.12c.81,0,1.21-2.86.55-3.94-.49-.82-.78-.34-.79,1.33A6.47,6.47,0,0,0,43.31,110.49ZM39.9,562.21a5.72,5.72,0,0,0,0-3c-.27-.68-.48.11-.48,1.76S39.63,563.18,39.9,562.21Zm.59-9.73a73.6,73.6,0,0,1,1.17,10.36c.17,3.76.55,7.07.82,7.36,1.32,1.34,1.92-8.31,1.4-22.52-.81-22.41-.82-31-.05-36.67.37-2.74.29-5.14-.18-5.33s-.46-1.08,0-2,.57-3.91.2-6.67l-.68-5L43,497.5c-.24,6.37-1.12,10.17-2.21,9.49-.42-.27-.88,3.86-1,9.16-.19,7,.1,9.88,1,10.48s1,.84,0,.84c-.78,0-1,.5-.56,1.24,1,1.66,1.16,4.78.23,4.77S39.45,548.19,40.49,552.48Zm.09-56.75a14.16,14.16,0,0,0,.05-4.5c-.23-1.24-.43-.23-.46,2.25S40.33,497,40.58,495.73Zm2.58-255.49a8.26,8.26,0,0,0,0-3.5c-.25-1-.46-.18-.48,1.75S42.9,241.2,43.16,240.24Zm.39-38.56a2,2,0,0,0-.06-1.92c-.33-.33-.57.26-.54,1.31S43.22,202.48,43.55,201.68Zm-4,496.55a8.26,8.26,0,0,0,0-3.5c-.24-1-.46-.18-.48,1.74S39.25,699.19,39.51,698.23Zm2.22-183.74c.76-1.08.84-.68.33,1.51-.86,3.66-1.44,4.46-1.39,1.9A7.35,7.35,0,0,1,41.73,514.49Zm1.58-143c1.07,0,1.14-18.87.08-21.5-.5-1.22-.83,2.63-.86,9.74C42.51,366.2,42.86,371.5,43.31,371.5Zm-.08-39.82a2,2,0,0,0-.06-1.91c-.33-.34-.57.25-.54,1.3S42.9,332.48,43.23,331.68ZM41.33,648c.55.34,1-.3,1-1.44s-.43-2.06-1-2.06-1,.63-1,1.43A2.7,2.7,0,0,0,41.33,648Zm.05-13.06c.4.26.56,2.36.35,4.69s-.1,4,.23,3.62c1.08-1,1.82-14,.77-13.37C41.44,630.65,40.46,634.36,41.38,634.94ZM42,581c.56,2.41.74,1.83.88-2.91.1-3.25,0-5.73-.18-5.5C41.79,573.67,41.4,578.3,42,581Zm-.11,76.23a5.73,5.73,0,0,0,0-3c-.27-.68-.49.12-.48,1.77S41.67,658.2,41.93,657.23Zm.56,42.47a2,2,0,0,0-.06-1.92c-.33-.34-.57.25-.54,1.31S42.16,700.49,42.49,699.7Zm.71-71.94a3.83,3.83,0,0,0,0-2.5c-.27-.69-.51-.13-.52,1.25S42.92,628.45,43.2,627.76Z"/></svg>